# xmcd
#
# Track frame offsets: 
#        150
#        12612
#        24472
#        37250
#        49947
#        61850
#        72925
#        84645
#
# Disc length: 1334 seconds
#
# Revision: 0
# Processed by: cddbd v1.4PL0 Copyright (c) Steve Scherf et al.
# Submitted via: ExactAudioCopy v0.90b3
#
DISCID=6c053408
DTITLE=B.J. Thomas - Country Soul
DYEAR=1900
DGENRE=Country
TTITLE0=I'm So Lonesome I Could Cry
TTITLE1=Half As Much
TTITLE2=Husbands, And Wives
TTITLE3=Four Walls
TTITLE4=I Can't Help It (If I'm Still In Love With You)
TTITLE5=Cold, Cold Heart
TTITLE6=A Fallen Star
TTITLE7=Gone
EXTD=
EXTT0=
EXTT1=
EXTT2=
EXTT3=
EXTT4=
EXTT5=
EXTT6=
EXTT7=
PLAYORDER=
